<svg width="125" height="35" viewBox="0 0 125 35" fill="none" xmlns="http://www.w3.org/2000/svg">
<path d="M17.7884 1C26.901 1 34.2883 8.38731 34.2883 17.5C34.2883 26.6127 26.901 34 17.7884 34C8.67564 34 1.28833 26.6127 1.28833 17.5C1.28833 8.38731 8.67564 1 17.7884 1Z" stroke="#0FA958" stroke-width="1.9472"/>
<path d="M31.3788 17.5C31.3788 9.99414 25.2941 3.90942 17.7883 3.90942C10.2824 3.90942 4.19769 9.99414 4.19769 17.5C4.19769 25.0059 10.2824 31.0906 17.7883 31.0906C25.2941 31.0906 31.3788 25.0059 31.3788 17.5Z" fill="#0FA958"/>
<path d="M12.5147 19.1554C12.5147 19.4681 12.5699 19.762 12.6804 20.0371C12.791 20.2998 12.9384 20.5311 13.1226 20.7312C13.3191 20.9312 13.5463 21.0876 13.8041 21.2002C14.0743 21.3127 14.3629 21.369 14.67 21.369C14.9647 21.369 15.241 21.3127 15.4989 21.2002C15.7691 21.0876 15.9962 20.9312 16.1804 20.7312C16.377 20.5311 16.5305 20.2998 16.6409 20.0371C16.7638 19.7745 16.8252 19.4931 16.8252 19.1929C16.8252 18.8928 16.7638 18.6115 16.6409 18.3488C16.5305 18.0737 16.377 17.8361 16.1804 17.636C15.9962 17.4359 15.7691 17.2796 15.4989 17.167C15.241 17.0545 14.9647 16.9982 14.67 16.9982C14.3629 16.9982 14.0743 17.0545 13.8041 17.167C13.5463 17.2796 13.3191 17.4359 13.1226 17.636C12.9384 17.8361 12.791 18.0674 12.6804 18.33C12.5699 18.5802 12.5147 18.8553 12.5147 19.1554ZM16.7147 14.372H20.0673V23.9952H16.7147V22.9259C16.0024 23.8389 15.0383 24.2953 13.8226 24.2953C13.1348 24.2953 12.5024 24.1702 11.9252 23.9202C11.348 23.6575 10.8445 23.2948 10.4147 22.8321C9.98488 22.3694 9.64716 21.8254 9.4015 21.2002C9.16818 20.5748 9.05151 19.8933 9.05151 19.1554C9.05151 18.4677 9.16818 17.8173 9.4015 17.2045C9.6349 16.5793 9.96028 16.0353 10.3779 15.5725C10.7954 15.1099 11.2928 14.7472 11.8699 14.4845C12.4471 14.2095 13.0858 14.0719 13.7857 14.0719C14.9647 14.0719 15.941 14.4908 16.7147 15.3287V14.372ZM24.381 14.372V23.9952H21.0468V14.372H24.381ZM20.8257 10.6766C20.8257 10.414 20.8748 10.1701 20.9731 9.94501C21.0714 9.70738 21.2064 9.50106 21.3784 9.32595C21.5503 9.15091 21.7468 9.01331 21.9679 8.91329C22.2012 8.81319 22.4468 8.76318 22.7047 8.76318C22.9626 8.76318 23.202 8.81319 23.4231 8.91329C23.6565 9.01331 23.8591 9.15091 24.031 9.32595C24.2029 9.50106 24.338 9.70738 24.4362 9.94501C24.5345 10.1701 24.5836 10.414 24.5836 10.6766C24.5836 10.9392 24.5345 11.1893 24.4362 11.4269C24.338 11.652 24.2029 11.8521 24.031 12.0272C23.8591 12.2023 23.6565 12.3399 23.4231 12.4399C23.202 12.5399 22.9626 12.5899 22.7047 12.5899C22.4468 12.5899 22.2012 12.5399 21.9679 12.4399C21.7468 12.3399 21.5503 12.2023 21.3784 12.0272C21.2064 11.8521 21.0714 11.652 20.9731 11.4269C20.8748 11.1893 20.8257 10.9392 20.8257 10.6766Z" fill="white"/>
<path d="M60.4559 17.9545C60.4559 19.3821 60.1853 20.5966 59.6442 21.598C59.1072 22.5994 58.3743 23.3643 57.4453 23.8928C56.5206 24.4169 55.4808 24.679 54.326 24.679C53.1626 24.679 52.1186 24.4148 51.1939 23.8864C50.2692 23.358 49.5383 22.593 49.0014 21.5916C48.4645 20.5902 48.196 19.3778 48.196 17.9545C48.196 16.527 48.4645 15.3125 49.0014 14.3111C49.5383 13.3097 50.2692 12.5469 51.1939 12.0227C52.1186 11.4943 53.1626 11.2301 54.326 11.2301C55.4808 11.2301 56.5206 11.4943 57.4453 12.0227C58.3743 12.5469 59.1072 13.3097 59.6442 14.3111C60.1853 15.3125 60.4559 16.527 60.4559 17.9545ZM57.6498 17.9545C57.6498 17.0298 57.5113 16.25 57.2344 15.6151C56.9616 14.9801 56.576 14.4986 56.0774 14.1705C55.5788 13.8423 54.995 13.6783 54.326 13.6783C53.6569 13.6783 53.0731 13.8423 52.5746 14.1705C52.076 14.4986 51.6882 14.9801 51.4112 15.6151C51.1385 16.25 51.0021 17.0298 51.0021 17.9545C51.0021 18.8793 51.1385 19.6591 51.4112 20.294C51.6882 20.929 52.076 21.4105 52.5746 21.7386C53.0731 22.0668 53.6569 22.2308 54.326 22.2308C54.995 22.2308 55.5788 22.0668 56.0774 21.7386C56.576 21.4105 56.9616 20.929 57.2344 20.294C57.5113 19.6591 57.6498 18.8793 57.6498 17.9545ZM62.0951 28.1818V14.6818H64.7797V16.331H64.9012C65.0205 16.0668 65.1931 15.7983 65.4189 15.5256C65.649 15.2486 65.9473 15.0185 66.3138 14.8352C66.6845 14.6477 67.1448 14.554 67.6945 14.554C68.4104 14.554 69.0709 14.7415 69.676 15.1165C70.2811 15.4872 70.7648 16.0476 71.127 16.7976C71.4892 17.5433 71.6703 18.4787 71.6703 19.6037C71.6703 20.6989 71.4935 21.6236 71.1398 22.3778C70.7904 23.1278 70.3131 23.6967 69.708 24.0845C69.1071 24.468 68.4338 24.6598 67.6881 24.6598C67.1597 24.6598 66.7101 24.5724 66.3394 24.3977C65.9729 24.223 65.6725 24.0036 65.4381 23.7393C65.2037 23.4709 65.0247 23.2003 64.9012 22.9276H64.8181V28.1818H62.0951ZM64.7605 19.5909C64.7605 20.1747 64.8415 20.6839 65.0034 21.1186C65.1654 21.5533 65.3997 21.892 65.7066 22.1349C66.0134 22.3736 66.3862 22.4929 66.8252 22.4929C67.2684 22.4929 67.6434 22.3714 67.9502 22.1286C68.257 21.8814 68.4892 21.5405 68.6469 21.1058C68.8088 20.6669 68.8898 20.1619 68.8898 19.5909C68.8898 19.0241 68.811 18.5256 68.6533 18.0952C68.4956 17.6648 68.2634 17.3281 67.9566 17.0852C67.6497 16.8423 67.2726 16.7209 66.8252 16.7209C66.382 16.7209 66.007 16.8381 65.7002 17.0724C65.3976 17.3068 65.1654 17.6392 65.0034 18.0696C64.8415 18.5 64.7605 19.0071 64.7605 19.5909ZM77.6001 24.6918C76.5902 24.6918 75.7209 24.4872 74.9922 24.0781C74.2677 23.6648 73.7095 23.081 73.3174 22.3267C72.9254 21.5682 72.7294 20.6712 72.7294 19.6357C72.7294 18.6257 72.9254 17.7393 73.3174 16.9766C73.7095 16.2138 74.2613 15.6193 74.973 15.1932C75.6889 14.767 76.5284 14.554 77.4914 14.554C78.1392 14.554 78.7422 14.6584 79.3004 14.8672C79.8629 15.0717 80.353 15.3807 80.7706 15.794C81.1924 16.2074 81.5206 16.7273 81.7549 17.3537C81.9893 17.9759 82.1065 18.7045 82.1065 19.5398V20.2876H73.816V18.6001H79.5433C79.5433 18.2081 79.4581 17.8608 79.2876 17.5582C79.1172 17.2557 78.8807 17.0192 78.5781 16.8487C78.2798 16.674 77.9325 16.5866 77.5362 16.5866C77.1228 16.5866 76.7564 16.6825 76.4368 16.8743C76.1214 17.0618 75.8743 17.3153 75.6953 17.6349C75.5163 17.9503 75.4247 18.3018 75.4204 18.6896V20.294C75.4204 20.7798 75.5099 21.1996 75.6889 21.5533C75.8721 21.907 76.1299 22.1797 76.4623 22.3714C76.7947 22.5632 77.1889 22.6591 77.6449 22.6591C77.9474 22.6591 78.2244 22.6165 78.4758 22.5312C78.7272 22.446 78.9424 22.3182 79.1214 22.1477C79.3004 21.9773 79.4368 21.7685 79.5305 21.5213L82.049 21.6875C81.9211 22.2926 81.6591 22.821 81.2628 23.2727C80.8707 23.7202 80.3636 24.0696 79.7414 24.321C79.1236 24.5682 78.4098 24.6918 77.6001 24.6918ZM86.2465 18.8239V24.5H83.5235V14.6818H86.1187V16.4141H86.2337C86.451 15.843 86.8154 15.3913 87.3268 15.0589C87.8381 14.7223 88.4582 14.554 89.1868 14.554C89.8687 14.554 90.4631 14.7031 90.9702 15.0014C91.4773 15.2997 91.8715 15.7259 92.1528 16.2798C92.434 16.8295 92.5746 17.4858 92.5746 18.2486V24.5H89.8516V18.7344C89.8559 18.1335 89.7025 17.6648 89.3914 17.3281C89.0803 16.9872 88.652 16.8168 88.1066 16.8168C87.7401 16.8168 87.4162 16.8956 87.135 17.0533C86.858 17.2109 86.6407 17.4411 86.483 17.7436C86.3296 18.0419 86.2508 18.402 86.2465 18.8239ZM96.6683 24.5H93.7024L98.2216 11.4091H101.788L106.301 24.5H103.335L100.056 14.4006H99.9538L96.6683 24.5ZM96.4829 19.3544H103.489V21.5149H96.4829V19.3544ZM115.582 15.6406C115.492 15.3295 115.367 15.0547 115.205 14.8161C115.043 14.5732 114.845 14.3686 114.61 14.2024C114.38 14.032 114.116 13.902 113.818 13.8125C113.524 13.723 113.198 13.6783 112.84 13.6783C112.171 13.6783 111.583 13.8445 111.076 14.1768C110.573 14.5092 110.181 14.9929 109.899 15.6278C109.618 16.2585 109.478 17.0298 109.478 17.9418C109.478 18.8537 109.616 19.6293 109.893 20.2685C110.17 20.9077 110.562 21.3956 111.069 21.7322C111.576 22.0646 112.175 22.2308 112.865 22.2308C113.492 22.2308 114.027 22.12 114.47 21.8984C114.917 21.6726 115.258 21.3551 115.492 20.946C115.731 20.5369 115.85 20.0533 115.85 19.495L116.413 19.5781H113.038V17.4943H118.516V19.1435C118.516 20.294 118.273 21.2827 117.787 22.1094C117.301 22.9318 116.632 23.5668 115.78 24.0142C114.928 24.4574 113.952 24.679 112.853 24.679C111.625 24.679 110.547 24.4084 109.618 23.8672C108.689 23.3217 107.965 22.5483 107.445 21.5469C106.929 20.5412 106.671 19.348 106.671 17.9673C106.671 16.9062 106.825 15.9602 107.132 15.1293C107.443 14.294 107.877 13.5866 108.436 13.0071C108.994 12.4276 109.644 11.9865 110.385 11.6839C111.127 11.3814 111.93 11.2301 112.795 11.2301C113.536 11.2301 114.227 11.3388 114.866 11.5561C115.505 11.7692 116.072 12.0717 116.566 12.4638C117.065 12.8558 117.472 13.3224 117.787 13.8636C118.103 14.4006 118.305 14.9929 118.394 15.6406H115.582ZM123.003 11.4091V24.5H120.235V11.4091H123.003Z" fill="black"/>
</svg>
